# xmcd CD database file
#
# Track frame offsets:
#	150
#	22428
#	45128
#	76601
#	97239
#	124989
#	157851
#	188498
#	216659
#	238149
#	264127
#
# Disc length: 3893 seconds
#
# Revision: 0
# Processed by: cddbd v1.5.2PL0 Copyright (c) Steve Scherf et al.
# Submitted via: CDex 1.70beta2
#
DISCID=8d0f330b
DTITLE=Spyro Gyra - The Deep End
DYEAR=2004
DGENRE=Jazz
TTITLE0=Summer Fling
TTITLE1=Eastlake Shuffle
TTITLE2=Monsoon
TTITLE3=As You Wish
TTITLE4=Joburg Jam
TTITLE5=The Crossing
TTITLE6=Wiggle Room
TTITLE7=Wind Warriors
TTITLE8=In Your Arms
TTITLE9=Chippewa Street
TTITLE10=Beyond The Rain
EXTD=YEAR: 2004
EXTT0=
EXTT1=
EXTT2=
EXTT3=
EXTT4=
EXTT5=
EXTT6=
EXTT7=
EXTT8=
EXTT9=
EXTT10=
PLAYORDER=
